<mxfile host="app.diagrams.net" modified="2023-05-06T22:34:00.540Z" agent="Mozilla/5.0 (Windows NT 10.0; Win64; x64) AppleWebKit/537.36 (KHTML, like Gecko) Chrome/113.0.0.0 Safari/537.36" etag="D_VstHKtl34Cc6jXgE7R" version="21.2.9">
  <diagram name="Page-1" id="TOzVrNq3c2Q1fTHhavhD">
    <mxGraphModel dx="1434" dy="808" grid="1" gridSize="10" guides="1" tooltips="1" connect="1" arrows="1" fold="1" page="1" pageScale="1" pageWidth="850" pageHeight="1100" math="0" shadow="0">
      <root>
        <mxCell id="0" />
        <mxCell id="1" parent="0" />
        <mxCell id="JNTfMXDPR5NTSgr0yBAD-1" value="User" style="swimlane;html=1;fontStyle=0;childLayout=stackLayout;horizontal=1;startSize=26;horizontalStack=0;resizeParent=1;resizeLast=0;collapsible=1;marginBottom=0;swimlaneFillColor=#ffffff;align=center;rounded=0;shadow=1;comic=0;labelBackgroundColor=none;strokeWidth=1;fontFamily=Verdana;fontSize=14;swimlaneLine=1;labelBorderColor=none;fillColor=#F2F2F2;strokeColor=#666666;fontColor=#333333;gradientColor=none;" vertex="1" parent="1">
          <mxGeometry x="90" y="350" width="160" height="170" as="geometry" />
        </mxCell>
        <mxCell id="JNTfMXDPR5NTSgr0yBAD-2" value="unique_Id" style="shape=partialRectangle;top=0;left=0;right=0;bottom=1;html=1;align=left;verticalAlign=middle;spacingLeft=34;spacingRight=4;whiteSpace=wrap;overflow=hidden;rotatable=0;points=[[0,0.5],[1,0.5]];portConstraint=eastwest;dropTarget=0;fontStyle=5;labelBorderColor=none;fillColor=#F2F2F2;strokeColor=#666666;fontColor=#333333;gradientColor=none;shadow=1;" vertex="1" parent="JNTfMXDPR5NTSgr0yBAD-1">
          <mxGeometry y="26" width="160" height="30" as="geometry" />
        </mxCell>
        <mxCell id="JNTfMXDPR5NTSgr0yBAD-3" value="PK" style="shape=partialRectangle;top=0;left=0;bottom=0;html=1;align=left;verticalAlign=middle;spacingLeft=4;spacingRight=4;whiteSpace=wrap;overflow=hidden;rotatable=0;points=[];portConstraint=eastwest;part=1;labelBorderColor=none;fillColor=#F2F2F2;strokeColor=#666666;fontColor=#333333;gradientColor=none;shadow=1;" vertex="1" connectable="0" parent="JNTfMXDPR5NTSgr0yBAD-2">
          <mxGeometry width="30" height="30" as="geometry" />
        </mxCell>
        <mxCell id="JNTfMXDPR5NTSgr0yBAD-4" value="first name" style="shape=partialRectangle;top=0;left=0;right=0;bottom=0;html=1;align=left;verticalAlign=top;spacingLeft=34;spacingRight=4;whiteSpace=wrap;overflow=hidden;rotatable=0;points=[[0,0.5],[1,0.5]];portConstraint=eastwest;dropTarget=0;labelBorderColor=none;fillColor=#F2F2F2;strokeColor=#666666;fontColor=#333333;gradientColor=none;shadow=1;" vertex="1" parent="JNTfMXDPR5NTSgr0yBAD-1">
          <mxGeometry y="56" width="160" height="26" as="geometry" />
        </mxCell>
        <mxCell id="JNTfMXDPR5NTSgr0yBAD-5" value="" style="shape=partialRectangle;top=0;left=0;bottom=0;html=1;align=left;verticalAlign=top;spacingLeft=4;spacingRight=4;whiteSpace=wrap;overflow=hidden;rotatable=0;points=[];portConstraint=eastwest;part=1;labelBorderColor=none;fillColor=#F2F2F2;strokeColor=#666666;fontColor=#333333;gradientColor=none;shadow=1;" vertex="1" connectable="0" parent="JNTfMXDPR5NTSgr0yBAD-4">
          <mxGeometry width="30" height="26" as="geometry" />
        </mxCell>
        <mxCell id="JNTfMXDPR5NTSgr0yBAD-6" value="last name" style="shape=partialRectangle;top=0;left=0;right=0;bottom=0;html=1;align=left;verticalAlign=top;spacingLeft=34;spacingRight=4;whiteSpace=wrap;overflow=hidden;rotatable=0;points=[[0,0.5],[1,0.5]];portConstraint=eastwest;dropTarget=0;labelBorderColor=none;fillColor=#F2F2F2;strokeColor=#666666;fontColor=#333333;gradientColor=none;shadow=1;" vertex="1" parent="JNTfMXDPR5NTSgr0yBAD-1">
          <mxGeometry y="82" width="160" height="26" as="geometry" />
        </mxCell>
        <mxCell id="JNTfMXDPR5NTSgr0yBAD-7" value="" style="shape=partialRectangle;top=0;left=0;bottom=0;html=1;align=left;verticalAlign=top;spacingLeft=4;spacingRight=4;whiteSpace=wrap;overflow=hidden;rotatable=0;points=[];portConstraint=eastwest;part=1;labelBorderColor=none;fillColor=#F2F2F2;strokeColor=#666666;fontColor=#333333;gradientColor=none;shadow=1;" vertex="1" connectable="0" parent="JNTfMXDPR5NTSgr0yBAD-6">
          <mxGeometry width="30" height="26" as="geometry" />
        </mxCell>
        <mxCell id="JNTfMXDPR5NTSgr0yBAD-8" value="phone" style="shape=partialRectangle;top=0;left=0;right=0;bottom=0;html=1;align=left;verticalAlign=top;spacingLeft=34;spacingRight=4;whiteSpace=wrap;overflow=hidden;rotatable=0;points=[[0,0.5],[1,0.5]];portConstraint=eastwest;dropTarget=0;labelBorderColor=none;fillColor=#F2F2F2;strokeColor=#666666;fontColor=#333333;gradientColor=none;shadow=1;" vertex="1" parent="JNTfMXDPR5NTSgr0yBAD-1">
          <mxGeometry y="108" width="160" height="26" as="geometry" />
        </mxCell>
        <mxCell id="JNTfMXDPR5NTSgr0yBAD-9" value="" style="shape=partialRectangle;top=0;left=0;bottom=0;html=1;align=left;verticalAlign=top;spacingLeft=4;spacingRight=4;whiteSpace=wrap;overflow=hidden;rotatable=0;points=[];portConstraint=eastwest;part=1;labelBorderColor=none;fillColor=#F2F2F2;strokeColor=#666666;fontColor=#333333;gradientColor=none;shadow=1;" vertex="1" connectable="0" parent="JNTfMXDPR5NTSgr0yBAD-8">
          <mxGeometry width="30" height="26" as="geometry" />
        </mxCell>
        <mxCell id="JNTfMXDPR5NTSgr0yBAD-10" value="address" style="shape=partialRectangle;top=0;left=0;right=0;bottom=0;html=1;align=left;verticalAlign=top;spacingLeft=34;spacingRight=4;whiteSpace=wrap;overflow=hidden;rotatable=0;points=[[0,0.5],[1,0.5]];portConstraint=eastwest;dropTarget=0;labelBorderColor=none;fillColor=#F2F2F2;strokeColor=#666666;fontColor=#333333;gradientColor=none;shadow=1;" vertex="1" parent="JNTfMXDPR5NTSgr0yBAD-1">
          <mxGeometry y="134" width="160" height="26" as="geometry" />
        </mxCell>
        <mxCell id="JNTfMXDPR5NTSgr0yBAD-11" value="" style="shape=partialRectangle;top=0;left=0;bottom=0;html=1;align=left;verticalAlign=top;spacingLeft=4;spacingRight=4;whiteSpace=wrap;overflow=hidden;rotatable=0;points=[];portConstraint=eastwest;part=1;labelBorderColor=none;fillColor=#F2F2F2;strokeColor=#666666;fontColor=#333333;gradientColor=none;shadow=1;" vertex="1" connectable="0" parent="JNTfMXDPR5NTSgr0yBAD-10">
          <mxGeometry width="30" height="26" as="geometry" />
        </mxCell>
        <mxCell id="JNTfMXDPR5NTSgr0yBAD-12" value="" style="shape=partialRectangle;top=0;left=0;right=0;bottom=0;html=1;align=left;verticalAlign=top;spacingLeft=34;spacingRight=4;whiteSpace=wrap;overflow=hidden;rotatable=0;points=[[0,0.5],[1,0.5]];portConstraint=eastwest;dropTarget=0;labelBorderColor=none;fillColor=#F2F2F2;strokeColor=#666666;fontColor=#333333;gradientColor=none;shadow=1;" vertex="1" parent="JNTfMXDPR5NTSgr0yBAD-1">
          <mxGeometry y="160" width="160" height="10" as="geometry" />
        </mxCell>
        <mxCell id="JNTfMXDPR5NTSgr0yBAD-13" value="" style="shape=partialRectangle;top=0;left=0;bottom=0;html=1;align=left;verticalAlign=top;spacingLeft=4;spacingRight=4;whiteSpace=wrap;overflow=hidden;rotatable=0;points=[];portConstraint=eastwest;part=1;labelBorderColor=none;fillColor=#F2F2F2;strokeColor=#666666;fontColor=#333333;gradientColor=none;shadow=1;" vertex="1" connectable="0" parent="JNTfMXDPR5NTSgr0yBAD-12">
          <mxGeometry width="30" height="10" as="geometry" />
        </mxCell>
        <mxCell id="JNTfMXDPR5NTSgr0yBAD-14" value="Transaction" style="swimlane;html=1;fontStyle=0;childLayout=stackLayout;horizontal=1;startSize=26;horizontalStack=0;resizeParent=1;resizeLast=0;collapsible=1;marginBottom=0;swimlaneFillColor=#ffffff;align=center;rounded=0;shadow=1;comic=0;labelBackgroundColor=none;strokeWidth=1;fontFamily=Verdana;fontSize=14;labelBorderColor=none;fillColor=#F2F2F2;strokeColor=#666666;fontColor=#333333;gradientColor=none;" vertex="1" parent="1">
          <mxGeometry x="650" y="204" width="160" height="146" as="geometry">
            <mxRectangle x="650" y="204" width="120" height="30" as="alternateBounds" />
          </mxGeometry>
        </mxCell>
        <mxCell id="JNTfMXDPR5NTSgr0yBAD-15" value="unique_Id" style="shape=partialRectangle;top=0;left=0;right=0;bottom=1;html=1;align=left;verticalAlign=middle;spacingLeft=34;spacingRight=4;whiteSpace=wrap;overflow=hidden;rotatable=0;points=[[0,0.5],[1,0.5]];portConstraint=eastwest;dropTarget=0;fontStyle=5;labelBorderColor=none;fillColor=#F2F2F2;strokeColor=#666666;fontColor=#333333;gradientColor=none;shadow=1;" vertex="1" parent="JNTfMXDPR5NTSgr0yBAD-14">
          <mxGeometry y="26" width="160" height="30" as="geometry" />
        </mxCell>
        <mxCell id="JNTfMXDPR5NTSgr0yBAD-16" value="PK" style="shape=partialRectangle;top=0;left=0;bottom=0;html=1;align=left;verticalAlign=middle;spacingLeft=4;spacingRight=4;whiteSpace=wrap;overflow=hidden;rotatable=0;points=[];portConstraint=eastwest;part=1;labelBorderColor=none;fillColor=#F2F2F2;strokeColor=#666666;fontColor=#333333;gradientColor=none;shadow=1;" vertex="1" connectable="0" parent="JNTfMXDPR5NTSgr0yBAD-15">
          <mxGeometry width="30" height="30" as="geometry" />
        </mxCell>
        <mxCell id="JNTfMXDPR5NTSgr0yBAD-17" value="date" style="shape=partialRectangle;top=0;left=0;right=0;bottom=0;html=1;align=left;verticalAlign=top;spacingLeft=34;spacingRight=4;whiteSpace=wrap;overflow=hidden;rotatable=0;points=[[0,0.5],[1,0.5]];portConstraint=eastwest;dropTarget=0;labelBorderColor=none;fillColor=#F2F2F2;strokeColor=#666666;fontColor=#333333;gradientColor=none;shadow=1;" vertex="1" parent="JNTfMXDPR5NTSgr0yBAD-14">
          <mxGeometry y="56" width="160" height="26" as="geometry" />
        </mxCell>
        <mxCell id="JNTfMXDPR5NTSgr0yBAD-18" value="" style="shape=partialRectangle;top=0;left=0;bottom=0;html=1;align=left;verticalAlign=top;spacingLeft=4;spacingRight=4;whiteSpace=wrap;overflow=hidden;rotatable=0;points=[];portConstraint=eastwest;part=1;labelBorderColor=none;fillColor=#F2F2F2;strokeColor=#666666;fontColor=#333333;gradientColor=none;shadow=1;" vertex="1" connectable="0" parent="JNTfMXDPR5NTSgr0yBAD-17">
          <mxGeometry width="30" height="26" as="geometry" />
        </mxCell>
        <mxCell id="JNTfMXDPR5NTSgr0yBAD-19" value="payment amount" style="shape=partialRectangle;top=0;left=0;right=0;bottom=0;html=1;align=left;verticalAlign=top;spacingLeft=34;spacingRight=4;whiteSpace=wrap;overflow=hidden;rotatable=0;points=[[0,0.5],[1,0.5]];portConstraint=eastwest;dropTarget=0;labelBorderColor=none;fillColor=#F2F2F2;strokeColor=#666666;fontColor=#333333;gradientColor=none;shadow=1;" vertex="1" parent="JNTfMXDPR5NTSgr0yBAD-14">
          <mxGeometry y="82" width="160" height="26" as="geometry" />
        </mxCell>
        <mxCell id="JNTfMXDPR5NTSgr0yBAD-20" value="" style="shape=partialRectangle;top=0;left=0;bottom=0;html=1;align=left;verticalAlign=top;spacingLeft=4;spacingRight=4;whiteSpace=wrap;overflow=hidden;rotatable=0;points=[];portConstraint=eastwest;part=1;labelBorderColor=none;fillColor=#F2F2F2;strokeColor=#666666;fontColor=#333333;gradientColor=none;shadow=1;" vertex="1" connectable="0" parent="JNTfMXDPR5NTSgr0yBAD-19">
          <mxGeometry width="30" height="26" as="geometry" />
        </mxCell>
        <mxCell id="JNTfMXDPR5NTSgr0yBAD-21" value="payment recipient" style="shape=partialRectangle;top=0;left=0;right=0;bottom=0;html=1;align=left;verticalAlign=top;spacingLeft=34;spacingRight=4;whiteSpace=wrap;overflow=hidden;rotatable=0;points=[[0,0.5],[1,0.5]];portConstraint=eastwest;dropTarget=0;labelBorderColor=none;fillColor=#F2F2F2;strokeColor=#666666;fontColor=#333333;gradientColor=none;shadow=1;" vertex="1" parent="JNTfMXDPR5NTSgr0yBAD-14">
          <mxGeometry y="108" width="160" height="26" as="geometry" />
        </mxCell>
        <mxCell id="JNTfMXDPR5NTSgr0yBAD-22" value="" style="shape=partialRectangle;top=0;left=0;bottom=0;html=1;align=left;verticalAlign=top;spacingLeft=4;spacingRight=4;whiteSpace=wrap;overflow=hidden;rotatable=0;points=[];portConstraint=eastwest;part=1;labelBorderColor=none;fillColor=#F2F2F2;strokeColor=#666666;fontColor=#333333;gradientColor=none;shadow=1;" vertex="1" connectable="0" parent="JNTfMXDPR5NTSgr0yBAD-21">
          <mxGeometry width="30" height="26" as="geometry" />
        </mxCell>
        <mxCell id="JNTfMXDPR5NTSgr0yBAD-25" value="" style="shape=partialRectangle;top=0;left=0;right=0;bottom=0;html=1;align=left;verticalAlign=top;spacingLeft=34;spacingRight=4;whiteSpace=wrap;overflow=hidden;rotatable=0;points=[[0,0.5],[1,0.5]];portConstraint=eastwest;dropTarget=0;labelBorderColor=none;fillColor=#F2F2F2;strokeColor=#666666;fontColor=#333333;gradientColor=none;shadow=1;" vertex="1" parent="JNTfMXDPR5NTSgr0yBAD-14">
          <mxGeometry y="134" width="160" height="10" as="geometry" />
        </mxCell>
        <mxCell id="JNTfMXDPR5NTSgr0yBAD-26" value="" style="shape=partialRectangle;top=0;left=0;bottom=0;html=1;align=left;verticalAlign=top;spacingLeft=4;spacingRight=4;whiteSpace=wrap;overflow=hidden;rotatable=0;points=[];portConstraint=eastwest;part=1;labelBorderColor=none;fillColor=#F2F2F2;strokeColor=#666666;fontColor=#333333;gradientColor=none;shadow=1;" vertex="1" connectable="0" parent="JNTfMXDPR5NTSgr0yBAD-25">
          <mxGeometry width="30" height="10" as="geometry" />
        </mxCell>
        <mxCell id="JNTfMXDPR5NTSgr0yBAD-56" style="edgeStyle=orthogonalEdgeStyle;rounded=0;orthogonalLoop=1;jettySize=auto;html=1;exitX=0.538;exitY=-0.5;exitDx=0;exitDy=0;entryX=0.494;entryY=0.9;entryDx=0;entryDy=0;entryPerimeter=0;exitPerimeter=0;" edge="1" parent="JNTfMXDPR5NTSgr0yBAD-14" source="JNTfMXDPR5NTSgr0yBAD-25" target="JNTfMXDPR5NTSgr0yBAD-25">
          <mxGeometry relative="1" as="geometry" />
        </mxCell>
        <mxCell id="JNTfMXDPR5NTSgr0yBAD-27" value="Envelope" style="swimlane;html=1;fontStyle=0;childLayout=stackLayout;horizontal=1;startSize=26;horizontalStack=0;resizeParent=1;resizeLast=0;collapsible=1;marginBottom=0;swimlaneFillColor=#ffffff;align=center;rounded=0;shadow=1;comic=0;labelBackgroundColor=none;strokeWidth=1;fontFamily=Verdana;fontSize=14;labelBorderColor=none;fillColor=#F2F2F2;strokeColor=#666666;fontColor=#333333;gradientColor=none;" vertex="1" parent="1">
          <mxGeometry x="140" y="60" width="160" height="170" as="geometry" />
        </mxCell>
        <mxCell id="JNTfMXDPR5NTSgr0yBAD-28" value="unique_Id" style="shape=partialRectangle;top=0;left=0;right=0;bottom=1;html=1;align=left;verticalAlign=middle;spacingLeft=34;spacingRight=4;whiteSpace=wrap;overflow=hidden;rotatable=0;points=[[0,0.5],[1,0.5]];portConstraint=eastwest;dropTarget=0;fontStyle=5;labelBorderColor=none;fillColor=#F2F2F2;strokeColor=#666666;fontColor=#333333;gradientColor=none;shadow=1;" vertex="1" parent="JNTfMXDPR5NTSgr0yBAD-27">
          <mxGeometry y="26" width="160" height="30" as="geometry" />
        </mxCell>
        <mxCell id="JNTfMXDPR5NTSgr0yBAD-29" value="PK" style="shape=partialRectangle;top=0;left=0;bottom=0;html=1;align=left;verticalAlign=middle;spacingLeft=4;spacingRight=4;whiteSpace=wrap;overflow=hidden;rotatable=0;points=[];portConstraint=eastwest;part=1;labelBorderColor=none;fillColor=#F2F2F2;strokeColor=#666666;fontColor=#333333;gradientColor=none;shadow=1;" vertex="1" connectable="0" parent="JNTfMXDPR5NTSgr0yBAD-28">
          <mxGeometry width="30" height="30" as="geometry" />
        </mxCell>
        <mxCell id="JNTfMXDPR5NTSgr0yBAD-30" value="category" style="shape=partialRectangle;top=0;left=0;right=0;bottom=0;html=1;align=left;verticalAlign=top;spacingLeft=34;spacingRight=4;whiteSpace=wrap;overflow=hidden;rotatable=0;points=[[0,0.5],[1,0.5]];portConstraint=eastwest;dropTarget=0;labelBorderColor=none;fillColor=#F2F2F2;strokeColor=#666666;fontColor=#333333;gradientColor=none;shadow=1;" vertex="1" parent="JNTfMXDPR5NTSgr0yBAD-27">
          <mxGeometry y="56" width="160" height="26" as="geometry" />
        </mxCell>
        <mxCell id="JNTfMXDPR5NTSgr0yBAD-31" value="" style="shape=partialRectangle;top=0;left=0;bottom=0;html=1;align=left;verticalAlign=top;spacingLeft=4;spacingRight=4;whiteSpace=wrap;overflow=hidden;rotatable=0;points=[];portConstraint=eastwest;part=1;labelBorderColor=none;fillColor=#F2F2F2;strokeColor=#666666;fontColor=#333333;gradientColor=none;shadow=1;" vertex="1" connectable="0" parent="JNTfMXDPR5NTSgr0yBAD-30">
          <mxGeometry width="30" height="26" as="geometry" />
        </mxCell>
        <mxCell id="JNTfMXDPR5NTSgr0yBAD-32" value="budget" style="shape=partialRectangle;top=0;left=0;right=0;bottom=0;html=1;align=left;verticalAlign=top;spacingLeft=34;spacingRight=4;whiteSpace=wrap;overflow=hidden;rotatable=0;points=[[0,0.5],[1,0.5]];portConstraint=eastwest;dropTarget=0;labelBorderColor=none;fillColor=#F2F2F2;strokeColor=#666666;fontColor=#333333;gradientColor=none;shadow=1;" vertex="1" parent="JNTfMXDPR5NTSgr0yBAD-27">
          <mxGeometry y="82" width="160" height="26" as="geometry" />
        </mxCell>
        <mxCell id="JNTfMXDPR5NTSgr0yBAD-33" value="" style="shape=partialRectangle;top=0;left=0;bottom=0;html=1;align=left;verticalAlign=top;spacingLeft=4;spacingRight=4;whiteSpace=wrap;overflow=hidden;rotatable=0;points=[];portConstraint=eastwest;part=1;labelBorderColor=none;fillColor=#F2F2F2;strokeColor=#666666;fontColor=#333333;gradientColor=none;shadow=1;" vertex="1" connectable="0" parent="JNTfMXDPR5NTSgr0yBAD-32">
          <mxGeometry width="30" height="26" as="geometry" />
        </mxCell>
        <mxCell id="JNTfMXDPR5NTSgr0yBAD-34" value="remaining budget" style="shape=partialRectangle;top=0;left=0;right=0;bottom=0;html=1;align=left;verticalAlign=top;spacingLeft=34;spacingRight=4;whiteSpace=wrap;overflow=hidden;rotatable=0;points=[[0,0.5],[1,0.5]];portConstraint=eastwest;dropTarget=0;labelBorderColor=none;fillColor=#F2F2F2;strokeColor=#666666;fontColor=#333333;gradientColor=none;shadow=1;" vertex="1" parent="JNTfMXDPR5NTSgr0yBAD-27">
          <mxGeometry y="108" width="160" height="26" as="geometry" />
        </mxCell>
        <mxCell id="JNTfMXDPR5NTSgr0yBAD-35" value="" style="shape=partialRectangle;top=0;left=0;bottom=0;html=1;align=left;verticalAlign=top;spacingLeft=4;spacingRight=4;whiteSpace=wrap;overflow=hidden;rotatable=0;points=[];portConstraint=eastwest;part=1;labelBorderColor=none;fillColor=#F2F2F2;strokeColor=#666666;fontColor=#333333;gradientColor=none;shadow=1;" vertex="1" connectable="0" parent="JNTfMXDPR5NTSgr0yBAD-34">
          <mxGeometry width="30" height="26" as="geometry" />
        </mxCell>
        <mxCell id="JNTfMXDPR5NTSgr0yBAD-54" value="user_id" style="shape=partialRectangle;top=0;left=0;right=0;bottom=0;html=1;align=left;verticalAlign=top;spacingLeft=34;spacingRight=4;whiteSpace=wrap;overflow=hidden;rotatable=0;points=[[0,0.5],[1,0.5]];portConstraint=eastwest;dropTarget=0;labelBorderColor=none;fillColor=#F2F2F2;strokeColor=#666666;fontColor=#333333;gradientColor=none;shadow=1;" vertex="1" parent="JNTfMXDPR5NTSgr0yBAD-27">
          <mxGeometry y="134" width="160" height="26" as="geometry" />
        </mxCell>
        <mxCell id="JNTfMXDPR5NTSgr0yBAD-55" value="FK" style="shape=partialRectangle;top=0;left=0;bottom=0;html=1;align=left;verticalAlign=top;spacingLeft=4;spacingRight=4;whiteSpace=wrap;overflow=hidden;rotatable=0;points=[];portConstraint=eastwest;part=1;labelBorderColor=none;fillColor=#F2F2F2;strokeColor=#666666;fontColor=#333333;gradientColor=none;shadow=1;" vertex="1" connectable="0" parent="JNTfMXDPR5NTSgr0yBAD-54">
          <mxGeometry width="30" height="26" as="geometry" />
        </mxCell>
        <mxCell id="JNTfMXDPR5NTSgr0yBAD-36" value="" style="shape=partialRectangle;top=0;left=0;right=0;bottom=0;html=1;align=left;verticalAlign=top;spacingLeft=34;spacingRight=4;whiteSpace=wrap;overflow=hidden;rotatable=0;points=[[0,0.5],[1,0.5]];portConstraint=eastwest;dropTarget=0;labelBorderColor=none;fillColor=#F2F2F2;strokeColor=#666666;fontColor=#333333;gradientColor=none;shadow=1;" vertex="1" parent="JNTfMXDPR5NTSgr0yBAD-27">
          <mxGeometry y="160" width="160" height="10" as="geometry" />
        </mxCell>
        <mxCell id="JNTfMXDPR5NTSgr0yBAD-37" value="" style="shape=partialRectangle;top=0;left=0;bottom=0;html=1;align=left;verticalAlign=top;spacingLeft=4;spacingRight=4;whiteSpace=wrap;overflow=hidden;rotatable=0;points=[];portConstraint=eastwest;part=1;labelBorderColor=none;fillColor=#F2F2F2;strokeColor=#666666;fontColor=#333333;gradientColor=none;shadow=1;" vertex="1" connectable="0" parent="JNTfMXDPR5NTSgr0yBAD-36">
          <mxGeometry width="30" height="10" as="geometry" />
        </mxCell>
        <mxCell id="JNTfMXDPR5NTSgr0yBAD-38" value="User Transaction" style="swimlane;html=1;fontStyle=0;childLayout=stackLayout;horizontal=1;startSize=26;horizontalStack=0;resizeParent=1;resizeLast=0;collapsible=1;marginBottom=0;swimlaneFillColor=#ffffff;align=center;rounded=0;shadow=1;comic=0;labelBackgroundColor=none;strokeWidth=1;fontFamily=Verdana;fontSize=14;labelBorderColor=none;fillColor=#F2F2F2;strokeColor=#666666;fontColor=#333333;gradientColor=none;" vertex="1" parent="1">
          <mxGeometry x="360" y="460" width="160" height="120" as="geometry" />
        </mxCell>
        <mxCell id="JNTfMXDPR5NTSgr0yBAD-39" value="user_transaction_Id" style="shape=partialRectangle;top=0;left=0;right=0;bottom=1;html=1;align=left;verticalAlign=middle;spacingLeft=34;spacingRight=4;whiteSpace=wrap;overflow=hidden;rotatable=0;points=[[0,0.5],[1,0.5]];portConstraint=eastwest;dropTarget=0;fontStyle=5;labelBorderColor=none;fillColor=#F2F2F2;strokeColor=#666666;fontColor=#333333;gradientColor=none;shadow=1;" vertex="1" parent="JNTfMXDPR5NTSgr0yBAD-38">
          <mxGeometry y="26" width="160" height="30" as="geometry" />
        </mxCell>
        <mxCell id="JNTfMXDPR5NTSgr0yBAD-40" value="PK" style="shape=partialRectangle;top=0;left=0;bottom=0;html=1;align=left;verticalAlign=middle;spacingLeft=4;spacingRight=4;whiteSpace=wrap;overflow=hidden;rotatable=0;points=[];portConstraint=eastwest;part=1;labelBorderColor=none;fillColor=#F2F2F2;strokeColor=#666666;fontColor=#333333;gradientColor=none;shadow=1;" vertex="1" connectable="0" parent="JNTfMXDPR5NTSgr0yBAD-39">
          <mxGeometry width="30" height="30" as="geometry" />
        </mxCell>
        <mxCell id="JNTfMXDPR5NTSgr0yBAD-41" value="user_id" style="shape=partialRectangle;top=0;left=0;right=0;bottom=0;html=1;align=left;verticalAlign=top;spacingLeft=34;spacingRight=4;whiteSpace=wrap;overflow=hidden;rotatable=0;points=[[0,0.5],[1,0.5]];portConstraint=eastwest;dropTarget=0;labelBorderColor=none;fillColor=#F2F2F2;strokeColor=#666666;fontColor=#333333;gradientColor=none;shadow=1;" vertex="1" parent="JNTfMXDPR5NTSgr0yBAD-38">
          <mxGeometry y="56" width="160" height="26" as="geometry" />
        </mxCell>
        <mxCell id="JNTfMXDPR5NTSgr0yBAD-42" value="FK" style="shape=partialRectangle;top=0;left=0;bottom=0;html=1;align=left;verticalAlign=top;spacingLeft=4;spacingRight=4;whiteSpace=wrap;overflow=hidden;rotatable=0;points=[];portConstraint=eastwest;part=1;labelBorderColor=none;fillColor=#F2F2F2;strokeColor=#666666;fontColor=#333333;gradientColor=none;shadow=1;" vertex="1" connectable="0" parent="JNTfMXDPR5NTSgr0yBAD-41">
          <mxGeometry width="30" height="26" as="geometry" />
        </mxCell>
        <mxCell id="JNTfMXDPR5NTSgr0yBAD-43" value="transaction_id" style="shape=partialRectangle;top=0;left=0;right=0;bottom=0;html=1;align=left;verticalAlign=top;spacingLeft=34;spacingRight=4;whiteSpace=wrap;overflow=hidden;rotatable=0;points=[[0,0.5],[1,0.5]];portConstraint=eastwest;dropTarget=0;labelBorderColor=none;fillColor=#F2F2F2;strokeColor=#666666;fontColor=#333333;gradientColor=none;shadow=1;" vertex="1" parent="JNTfMXDPR5NTSgr0yBAD-38">
          <mxGeometry y="82" width="160" height="26" as="geometry" />
        </mxCell>
        <mxCell id="JNTfMXDPR5NTSgr0yBAD-44" value="FK" style="shape=partialRectangle;top=0;left=0;bottom=0;html=1;align=left;verticalAlign=top;spacingLeft=4;spacingRight=4;whiteSpace=wrap;overflow=hidden;rotatable=0;points=[];portConstraint=eastwest;part=1;labelBorderColor=none;fillColor=#F2F2F2;strokeColor=#666666;fontColor=#333333;gradientColor=none;shadow=1;" vertex="1" connectable="0" parent="JNTfMXDPR5NTSgr0yBAD-43">
          <mxGeometry width="30" height="26" as="geometry" />
        </mxCell>
        <mxCell id="JNTfMXDPR5NTSgr0yBAD-49" value="" style="shape=partialRectangle;top=0;left=0;right=0;bottom=0;html=1;align=left;verticalAlign=top;spacingLeft=34;spacingRight=4;whiteSpace=wrap;overflow=hidden;rotatable=0;points=[[0,0.5],[1,0.5]];portConstraint=eastwest;dropTarget=0;labelBorderColor=none;fillColor=#F2F2F2;strokeColor=#666666;fontColor=#333333;gradientColor=none;shadow=1;" vertex="1" parent="JNTfMXDPR5NTSgr0yBAD-38">
          <mxGeometry y="108" width="160" height="10" as="geometry" />
        </mxCell>
        <mxCell id="JNTfMXDPR5NTSgr0yBAD-50" value="" style="shape=partialRectangle;top=0;left=0;bottom=0;html=1;align=left;verticalAlign=top;spacingLeft=4;spacingRight=4;whiteSpace=wrap;overflow=hidden;rotatable=0;points=[];portConstraint=eastwest;part=1;labelBorderColor=none;fillColor=#F2F2F2;strokeColor=#666666;fontColor=#333333;gradientColor=none;shadow=1;" vertex="1" connectable="0" parent="JNTfMXDPR5NTSgr0yBAD-49">
          <mxGeometry width="30" height="10" as="geometry" />
        </mxCell>
        <mxCell id="JNTfMXDPR5NTSgr0yBAD-51" value="" style="edgeStyle=entityRelationEdgeStyle;fontSize=12;html=1;endArrow=ERoneToMany;rounded=0;exitX=1;exitY=0.5;exitDx=0;exitDy=0;" edge="1" parent="1" source="JNTfMXDPR5NTSgr0yBAD-2" target="JNTfMXDPR5NTSgr0yBAD-41">
          <mxGeometry width="100" height="100" relative="1" as="geometry">
            <mxPoint x="360" y="530" as="sourcePoint" />
            <mxPoint x="460" y="430" as="targetPoint" />
          </mxGeometry>
        </mxCell>
        <mxCell id="JNTfMXDPR5NTSgr0yBAD-52" value="" style="edgeStyle=entityRelationEdgeStyle;fontSize=12;html=1;endArrow=ERoneToMany;rounded=0;exitX=0;exitY=0.5;exitDx=0;exitDy=0;entryX=1;entryY=1.077;entryDx=0;entryDy=0;entryPerimeter=0;" edge="1" parent="1" source="JNTfMXDPR5NTSgr0yBAD-15" target="JNTfMXDPR5NTSgr0yBAD-43">
          <mxGeometry width="100" height="100" relative="1" as="geometry">
            <mxPoint x="580" y="470" as="sourcePoint" />
            <mxPoint x="700" y="401" as="targetPoint" />
          </mxGeometry>
        </mxCell>
        <mxCell id="JNTfMXDPR5NTSgr0yBAD-53" value="" style="edgeStyle=entityRelationEdgeStyle;fontSize=12;html=1;endArrow=ERoneToMany;rounded=0;" edge="1" parent="1" source="JNTfMXDPR5NTSgr0yBAD-2" target="JNTfMXDPR5NTSgr0yBAD-54">
          <mxGeometry width="100" height="100" relative="1" as="geometry">
            <mxPoint x="100" y="338" as="sourcePoint" />
            <mxPoint x="200" y="270" as="targetPoint" />
          </mxGeometry>
        </mxCell>
      </root>
    </mxGraphModel>
  </diagram>
</mxfile>
